<svg width="22" height="24" viewBox="0 0 22 24" fill="none" xmlns="http://www.w3.org/2000/svg">
<path d="M21.111 0.333C20.921 0.121 20.65 0 20.366 0H1C0.716001 0 0.445002 0.121 0.255002 0.333C0.0650016 0.545 -0.0249985 0.828 0.0060015 1.11L2.208 20.933C2.252 21.336 2.537 21.673 2.927 21.784L10.407 23.921C10.497 23.947 10.59 23.96 10.682 23.96C10.774 23.96 10.867 23.947 10.957 23.921L18.437 21.784C18.827 21.673 19.111 21.336 19.156 20.933L21.359 1.11C21.391 0.828 21.301 0.545 21.111 0.333ZM16.199 10.074L15.753 17.359L10.715 19.006L5.677 17.359L5.486 13.875H8.036L8.1 15.459L10.715 16.346L13.33 15.459L13.521 12.609H7.909L7.782 10.075H13.649L13.84 7.541H5.039L4.848 5.006H16.518L16.199 10.074Z" fill="#585858"/>
</svg>
