<svg width="32" height="32" viewBox="0 0 32 32" fill="none" xmlns="http://www.w3.org/2000/svg">
<path d="M10.26 20V8.408H11.736V18.848H17.91V20H10.26Z" fill="black"/>
<path d="M13.26 25V13.408H18.624C19.764 13.408 20.598 13.678 21.126 14.218C21.666 14.746 21.936 15.496 21.936 16.468C21.936 17.104 21.804 17.638 21.54 18.07C21.288 18.49 20.934 18.808 20.478 19.024C21.066 19.168 21.528 19.45 21.864 19.87C22.212 20.278 22.386 20.884 22.386 21.688C22.386 22.816 22.092 23.65 21.504 24.19C20.916 24.73 20.052 25 18.912 25H13.26ZM14.736 18.484H18.534C19.266 18.484 19.782 18.31 20.082 17.962C20.394 17.602 20.55 17.14 20.55 16.576C20.55 15.904 20.394 15.4 20.082 15.064C19.77 14.716 19.164 14.542 18.264 14.542H14.736V18.484ZM14.736 23.884H18.66C19.44 23.884 20.01 23.716 20.37 23.38C20.73 23.032 20.91 22.45 20.91 21.634C20.91 20.962 20.73 20.458 20.37 20.122C20.022 19.774 19.374 19.6 18.426 19.6H14.736V23.884Z" fill="black"/>
<path d="M6.898 16.456C6.338 16.456 5.94133 16.344 5.708 16.12C5.47467 15.9053 5.358 15.532 5.358 15V12.606C5.358 12.1767 5.302 11.85 5.19 11.626C5.078 11.3927 4.82133 11.2527 4.42 11.206V10.45C4.82133 10.4033 5.078 10.268 5.19 10.044C5.302 9.81067 5.358 9.47933 5.358 9.05V6.656C5.358 6.124 5.47467 5.75067 5.708 5.536C5.94133 5.312 6.338 5.2 6.898 5.2H7.584V6.11H7.108C6.884 6.11 6.72533 6.152 6.632 6.236C6.548 6.32 6.506 6.49733 6.506 6.768V9.526C6.506 9.78733 6.44533 10.044 6.324 10.296C6.20267 10.548 5.99267 10.7253 5.694 10.828C5.99267 10.9213 6.20267 11.0987 6.324 11.36C6.44533 11.612 6.506 11.864 6.506 12.116V14.888C6.506 15.1587 6.548 15.336 6.632 15.42C6.72533 15.504 6.884 15.546 7.108 15.546H7.584V16.456H6.898Z" fill="#ADE9FC"/>
<path d="M23.56 28.456V27.546H24.036C24.26 27.546 24.414 27.504 24.498 27.42C24.5913 27.336 24.638 27.1587 24.638 26.888V24.116C24.638 23.864 24.6987 23.612 24.82 23.36C24.9413 23.0987 25.1513 22.9213 25.45 22.828C25.1513 22.7253 24.9413 22.548 24.82 22.296C24.6987 22.044 24.638 21.7873 24.638 21.526V18.768C24.638 18.4973 24.5913 18.32 24.498 18.236C24.414 18.152 24.26 18.11 24.036 18.11H23.56V17.2H24.246C24.806 17.2 25.2027 17.312 25.436 17.536C25.6693 17.7507 25.786 18.124 25.786 18.656V21.05C25.786 21.4793 25.842 21.8107 25.954 22.044C26.066 22.268 26.3227 22.4033 26.724 22.45V23.206C26.3227 23.2527 26.066 23.3927 25.954 23.626C25.842 23.85 25.786 24.1767 25.786 24.606V27C25.786 27.532 25.6693 27.9053 25.436 28.12C25.2027 28.344 24.806 28.456 24.246 28.456H23.56Z" fill="#ADE9FC"/>
</svg>
