<svg width="25" height="24" viewBox="0 0 25 24" fill="none" xmlns="http://www.w3.org/2000/svg">
<path d="M12.683 0C6.05598 0 0.682983 5.373 0.682983 12C0.682983 17.623 4.55498 22.328 9.77498 23.63C9.71898 23.468 9.68298 23.28 9.68298 23.047V20.996C9.19598 20.996 8.37998 20.996 8.17498 20.996C7.35398 20.996 6.62398 20.643 6.26998 19.987C5.87698 19.258 5.80898 18.143 4.83498 17.461C4.54598 17.234 4.76598 16.975 5.09898 17.01C5.71398 17.184 6.22398 17.606 6.70398 18.232C7.18198 18.859 7.40698 19.001 8.29998 19.001C8.73298 19.001 9.38098 18.976 9.99098 18.88C10.319 18.047 10.886 17.28 11.579 16.918C7.58298 16.507 5.67598 14.519 5.67598 11.82C5.67598 10.658 6.17098 9.534 7.01198 8.587C6.73598 7.647 6.38898 5.73 7.11798 5C8.91598 5 10.003 6.166 10.264 6.481C11.16 6.174 12.144 6 13.178 6C14.214 6 15.202 6.174 16.1 6.483C16.358 6.17 17.446 5 19.248 5C19.98 5.731 19.629 7.656 19.35 8.594C20.186 9.539 20.678 10.66 20.678 11.82C20.678 14.517 18.774 16.504 14.784 16.917C15.882 17.49 16.683 19.1 16.683 20.313V23.047C16.683 23.151 16.66 23.226 16.648 23.315C21.324 21.676 24.683 17.236 24.683 12C24.683 5.373 19.31 0 12.683 0Z" fill="#585858"/>
</svg>
