<svg width="22" height="24" viewBox="0 0 22 24" fill="none" xmlns="http://www.w3.org/2000/svg">
<path d="M21.111 0.333C20.921 0.121 20.65 0 20.366 0H1C0.716001 0 0.445002 0.121 0.255002 0.333C0.0650016 0.545 -0.0249985 0.828 0.0060015 1.11L2.208 20.933C2.252 21.336 2.537 21.673 2.927 21.784L10.407 23.921C10.497 23.947 10.59 23.96 10.682 23.96C10.774 23.96 10.867 23.947 10.957 23.921L18.437 21.784C18.827 21.673 19.111 21.336 19.156 20.933L21.359 1.11C21.391 0.828 21.301 0.545 21.111 0.333ZM16.312 7.43H7.382L7.594 9.972H16.097L15.459 17.482L10.686 19L10.639 18.985L5.919 17.48L5.661 14.42H7.973L8.074 15.609L10.711 16.19L13.302 15.608L13.577 12.395H5.487L4.861 5H16.52L16.312 7.43Z" fill="#585858"/>
</svg>
