<svg width="22" height="24" viewBox="0 0 22 24" fill="none" xmlns="http://www.w3.org/2000/svg">
<path d="M21.2255 0.209039C21.1267 0.101399 20.9878 0.0400391 20.8417 0.0400391H0.524272C0.378152 0.0400391 0.239311 0.101399 0.140511 0.209039C0.0417113 0.316679 -0.00664869 0.461239 0.00635131 0.606319L1.83675 21.1084C1.85599 21.3226 2.00523 21.503 2.21219 21.5623L10.5374 23.9403C10.5837 23.9533 10.632 23.96 10.6799 23.96C10.7277 23.96 10.7761 23.9533 10.8224 23.9403L19.1548 21.5623C19.3618 21.503 19.511 21.3226 19.5303 21.1084L21.3596 0.606319C21.3726 0.461239 21.3238 0.316679 21.2255 0.209039ZM3.92299 14.0821L7.56299 15.092V4.72004H9.64299V18.24L3.92299 16.6535V14.0821ZM17.4711 10.44L16.923 16.81L11.723 18.24V15.8475L15.233 14.8829L15.363 12.9329L11.723 13.56V4.72004H17.963L17.7836 6.80004H13.803V10.96L17.4711 10.44Z" fill="#585858"/>
</svg>
