<svg width="23" height="22" viewBox="0 0 23 22" fill="none" xmlns="http://www.w3.org/2000/svg">
<path d="M20.683 0H2.68298C1.57798 0 0.682983 0.895 0.682983 2V20C0.682983 21.105 1.57798 22 2.68298 22H20.683C21.788 22 22.683 21.105 22.683 20V2C22.683 0.895 21.788 0 20.683 0ZM7.63698 18H4.68698V8.508H7.63698V18ZM6.13198 7.151C5.18098 7.151 4.41198 6.38 4.41198 5.431C4.41198 4.482 5.18198 3.712 6.13198 3.712C7.07998 3.712 7.85098 4.483 7.85098 5.431C7.85098 6.38 7.07998 7.151 6.13198 7.151ZM18.687 18H15.739V13.384C15.739 12.283 15.719 10.867 14.206 10.867C12.671 10.867 12.435 12.066 12.435 13.304V18H9.48698V8.508H12.317V9.805H12.357C12.751 9.059 13.713 8.272 15.148 8.272C18.135 8.272 18.687 10.238 18.687 12.794V18V18Z" fill="#585858"/>
</svg>
