<svg width="215" height="69" viewBox="0 0 215 69" fill="none" xmlns="http://www.w3.org/2000/svg">
<path d="M2.88 25V1.816H3.888V24.1H17.208V25H2.88ZM30.4408 25.36C27.3208 25.36 25.0168 24.628 23.5288 23.164C22.0648 21.676 21.3328 19.516 21.3328 16.684V1.816H22.3408V17.116C22.3408 19.588 23.0488 21.424 24.4648 22.624C25.9048 23.824 27.8968 24.424 30.4408 24.424C33.0088 24.424 35.0008 23.824 36.4168 22.624C37.8328 21.424 38.5408 19.588 38.5408 17.116V1.816H39.5488V16.684C39.5488 19.516 38.8048 21.676 37.3168 23.164C35.8528 24.628 33.5608 25.36 30.4408 25.36ZM54.6058 25.36C52.2058 25.36 50.2498 24.892 48.7378 23.956C47.2498 22.996 46.1578 21.676 45.4618 19.996C44.7658 18.316 44.4178 16.372 44.4178 14.164C44.4178 11.668 44.7298 9.472 45.3538 7.576C46.0018 5.656 47.0698 4.156 48.5578 3.076C50.0458 1.996 52.0618 1.456 54.6058 1.456C55.8778 1.456 57.0538 1.54 58.1338 1.708C59.2378 1.876 60.2338 2.128 61.1218 2.464V3.4C60.2338 3.064 59.2378 2.812 58.1338 2.644C57.0538 2.452 55.9138 2.356 54.7138 2.356C52.3138 2.356 50.4298 2.86 49.0618 3.868C47.7178 4.876 46.7698 6.268 46.2178 8.044C45.6658 9.796 45.3898 11.836 45.3898 14.164C45.3898 17.356 46.1218 19.876 47.5858 21.724C49.0738 23.548 51.4858 24.46 54.8218 24.46C55.8778 24.46 56.9698 24.388 58.0978 24.244C59.2258 24.076 60.2338 23.848 61.1218 23.56V24.496C60.2338 24.76 59.2378 24.964 58.1338 25.108C57.0538 25.276 55.8778 25.36 54.6058 25.36ZM63.9998 25L72.7478 1.816H74.3678L83.0798 25H82.0718L79.3718 17.8H67.7438L65.0438 25H63.9998ZM68.0678 16.9H79.0118L73.5398 2.392L68.0678 16.9ZM91.0957 25.36C89.7278 25.36 88.5158 25.276 87.4598 25.108C86.4278 24.964 85.4918 24.736 84.6518 24.424V23.524C85.6118 23.836 86.6078 24.076 87.6398 24.244C88.6958 24.412 89.8478 24.496 91.0957 24.496C93.5198 24.496 95.3678 24.076 96.6398 23.236C97.9118 22.396 98.5478 21.064 98.5478 19.24C98.5478 18.136 98.2958 17.236 97.7918 16.54C97.2878 15.82 96.4958 15.232 95.4158 14.776C94.3598 14.32 92.9678 13.912 91.2398 13.552C89.4398 13.168 88.0118 12.712 86.9558 12.184C85.8998 11.656 85.1438 11.02 84.6878 10.276C84.2318 9.508 84.0038 8.596 84.0038 7.54C84.0038 5.74 84.6398 4.276 85.9118 3.148C87.2078 2.02 89.2598 1.456 92.0678 1.456C93.3398 1.456 94.5278 1.552 95.6318 1.744C96.7358 1.912 97.5518 2.092 98.0798 2.284V3.184C97.3118 2.92 96.4358 2.716 95.4518 2.572C94.4918 2.428 93.4598 2.356 92.3558 2.356C89.9318 2.356 88.0958 2.776 86.8478 3.616C85.5998 4.456 84.9758 5.764 84.9758 7.54C84.9758 8.524 85.1798 9.328 85.5878 9.952C86.0198 10.576 86.7398 11.116 87.7478 11.572C88.7798 12.004 90.1958 12.424 91.9958 12.832C93.8678 13.24 95.3558 13.732 96.4598 14.308C97.5638 14.884 98.3438 15.568 98.7998 16.36C99.2798 17.152 99.5198 18.112 99.5198 19.24C99.5198 21.328 98.7878 22.876 97.3238 23.884C95.8838 24.868 93.8078 25.36 91.0957 25.36Z" fill="#121212"/>
<path d="M65.024 67V36.088H80C83.072 36.088 85.344 36.808 86.816 38.248C88.288 39.688 89.024 41.72 89.024 44.344C89.024 46.008 88.688 47.416 88.016 48.568C87.344 49.688 86.448 50.536 85.328 51.112C86.832 51.528 88.016 52.28 88.88 53.368C89.776 54.424 90.224 55.992 90.224 58.072C90.224 61.08 89.408 63.32 87.776 64.792C86.176 66.264 83.808 67 80.672 67H65.024ZM70.256 49.288H79.28C81.04 49.288 82.288 48.888 83.024 48.088C83.792 47.256 84.176 46.152 84.176 44.776C84.176 43.176 83.792 41.992 83.024 41.224C82.256 40.424 80.816 40.024 78.704 40.024H70.256V49.288ZM70.256 63.16H79.568C81.424 63.16 82.784 62.776 83.648 62.008C84.512 61.208 84.944 59.832 84.944 57.88C84.944 56.28 84.512 55.096 83.648 54.328C82.816 53.528 81.28 53.128 79.04 53.128H70.256V63.16ZM95.3053 67V36.088H109.513C112.969 36.088 115.481 36.984 117.049 38.776C118.649 40.536 119.449 42.936 119.449 45.976C119.449 48.152 118.905 50.008 117.817 51.544C116.729 53.08 115.161 54.152 113.113 54.76C113.689 55.176 114.137 55.624 114.457 56.104C114.777 56.584 115.097 57.224 115.417 58.024L119.305 67H113.929L110.137 58.36C109.785 57.528 109.353 56.936 108.841 56.584C108.361 56.232 107.529 56.056 106.345 56.056H100.537V67H95.3053ZM100.537 51.832H108.121C110.009 51.832 111.497 51.368 112.585 50.44C113.673 49.512 114.217 48.024 114.217 45.976C114.217 42.104 112.345 40.168 108.601 40.168H100.537V51.832ZM121.534 67L133.342 36.088H139.198L150.91 67H145.534L142.462 59.032H130.03L126.958 67H121.534ZM130.846 55H141.598L136.222 40.84L130.846 55ZM167.83 67.48C162.742 67.48 158.902 66.104 156.31 63.352C153.75 60.6 152.47 56.872 152.47 52.168C152.47 48.776 153.03 45.848 154.15 43.384C155.27 40.888 156.966 38.968 159.238 37.624C161.542 36.28 164.454 35.608 167.974 35.608C169.798 35.608 171.446 35.736 172.918 35.992C174.422 36.216 175.83 36.552 177.142 37V41.512C174.518 40.552 171.606 40.072 168.406 40.072C164.47 40.072 161.702 41.112 160.102 43.192C158.534 45.272 157.75 48.264 157.75 52.168C157.75 55.72 158.582 58.424 160.246 60.28C161.91 62.136 164.486 63.064 167.974 63.064C170.726 63.064 172.95 62.744 174.646 62.104V53.464H166.918V50.056H179.11V64.936C178.118 65.576 176.694 66.168 174.838 66.712C173.014 67.224 170.678 67.48 167.83 67.48ZM183.268 67L195.076 36.088H200.932L212.644 67H207.268L204.196 59.032H191.764L188.692 67H183.268ZM192.58 55H203.332L197.956 40.84L192.58 55Z" fill="#121212"/>
<path d="M46 30L138 30" stroke="#89D4EC" stroke-width="2" stroke-linecap="round"/>
</svg>
