<svg width="25" height="22" viewBox="0 0 25 22" fill="none" xmlns="http://www.w3.org/2000/svg">
<path d="M8.36267 0.181641C7.75167 0.181641 7.18498 0.318422 6.68298 0.607422C5.11411 1.51321 4.51695 3.72055 4.83337 6.46875C2.29568 7.56883 0.682983 9.18867 0.682983 11C0.682983 12.8113 2.29568 14.4312 4.83337 15.5312C4.51711 18.2793 5.11411 20.4868 6.68298 21.3926C7.18398 21.6816 7.75067 21.8184 8.36267 21.8184C9.6653 21.8184 11.1708 21.1646 12.683 20.043C14.1953 21.1646 15.7026 21.8184 17.0052 21.8184C17.6162 21.8184 18.1829 21.6816 18.6849 21.3926C20.2538 20.4868 20.851 18.2794 20.5345 15.5312C23.0713 14.4312 24.683 12.8109 24.683 11C24.683 9.18867 23.0703 7.56883 20.5326 6.46875C20.8489 3.72065 20.2519 1.51321 18.683 0.607422C18.182 0.317422 17.6153 0.181641 17.0033 0.181641C15.7007 0.181641 14.1951 0.835411 12.683 1.95703C11.1707 0.835411 9.66485 0.181641 8.36267 0.181641ZM8.36267 1.93164C9.1443 1.93164 10.1779 2.34725 11.3002 3.11719C10.6404 3.73987 9.99414 4.44793 9.37244 5.23633C8.36406 5.38092 7.41333 5.59169 6.53259 5.85547C6.52786 5.79439 6.51666 5.7303 6.51306 5.66992C6.40606 3.88992 6.79698 2.56305 7.55798 2.12305C7.78298 1.99305 8.04567 1.93164 8.36267 1.93164ZM17.0033 1.93164C17.3193 1.93164 17.583 1.99305 17.808 2.12305C18.569 2.56205 18.9599 3.88992 18.8529 5.66992C18.8493 5.7303 18.8381 5.79439 18.8334 5.85547C17.9521 5.59153 17.0007 5.38093 15.9916 5.23633C15.3699 4.44804 14.7256 3.7398 14.0658 3.11719C15.1879 2.34738 16.2221 1.93164 17.0033 1.93164ZM12.683 4.22852C12.9541 4.47525 13.2232 4.73603 13.4955 5.02148C13.2257 5.01242 12.9574 5 12.683 5C12.4093 5 12.1416 5.01247 11.8724 5.02148C12.1444 4.73633 12.4122 4.47502 12.683 4.22852ZM12.683 6.75C13.5117 6.75 14.2971 6.79632 15.0424 6.87695C15.4968 7.4947 15.9448 8.14781 16.3646 8.875C16.7671 9.57203 17.1229 10.2855 17.4369 11C17.1229 11.7149 16.7673 12.4295 16.3646 13.127C15.9461 13.852 15.4993 14.5009 15.0463 15.1172C14.2747 15.2016 13.4832 15.25 12.683 15.25C11.8543 15.25 11.0689 15.2037 10.3236 15.123C9.86912 14.5053 9.42121 13.8541 9.00134 13.127C8.59867 12.4295 8.24318 11.7149 7.92908 11C8.24296 10.2855 8.59891 9.57203 9.00134 8.875C9.42007 8.14991 9.8666 7.49905 10.3197 6.88281C11.0913 6.79839 11.8828 6.75 12.683 6.75ZM17.4291 7.29102C17.8258 7.3868 18.2072 7.49021 18.5658 7.60547C18.4846 7.97252 18.3852 8.34661 18.2728 8.72461C18.1441 8.48314 18.0194 8.2409 17.8802 8C17.7371 7.7522 17.5782 7.52956 17.4291 7.29102ZM7.93494 7.29297C7.78629 7.53078 7.62839 7.75299 7.48572 8C7.34665 8.24094 7.22178 8.48311 7.09314 8.72461C6.98049 8.34583 6.87953 7.97129 6.79822 7.60352C7.16335 7.48815 7.54381 7.38599 7.93494 7.29297ZM5.15173 8.24609C5.36243 9.13571 5.65471 10.0579 6.03064 10.998C5.65551 11.9359 5.36446 12.8565 5.15369 13.7441C3.41222 12.9032 2.43298 11.8564 2.43298 11C2.43298 10.121 3.38486 9.11927 4.97986 8.32227C5.0343 8.29503 5.09611 8.27269 5.15173 8.24609ZM20.2123 8.25586C21.9538 9.0968 22.933 10.1436 22.933 11C22.933 11.879 21.9811 12.8807 20.3861 13.6777C20.3317 13.705 20.2699 13.7273 20.2142 13.7539C20.0034 12.8638 19.7135 11.9407 19.3373 11C19.712 10.0629 20.0017 9.1428 20.2123 8.25586ZM12.683 9C11.578 9 10.683 9.895 10.683 11C10.683 12.105 11.578 13 12.683 13C13.788 13 14.683 12.105 14.683 11C14.683 9.895 13.788 9 12.683 9ZM7.09314 13.2754C7.22186 13.5169 7.34851 13.759 7.48767 14C7.63064 14.2476 7.7879 14.4706 7.93689 14.709C7.54014 14.6132 7.15873 14.5098 6.80017 14.3945C6.88146 14.0273 6.98065 13.6536 7.09314 13.2754ZM18.2728 13.2773C18.3853 13.6558 18.4865 14.0291 18.5677 14.3965C18.2026 14.5119 17.8222 14.614 17.431 14.707C17.5797 14.4692 17.7376 14.247 17.8802 14C18.019 13.7596 18.1444 13.5183 18.2728 13.2773ZM6.53259 16.1445C7.41388 16.4085 8.36531 16.6191 9.37439 16.7637C9.99627 17.5523 10.6401 18.2619 11.3002 18.8848C10.178 19.6545 9.14426 20.0703 8.36267 20.0703C8.04667 20.0703 7.78298 20.007 7.55798 19.877C6.79698 19.438 6.40606 18.112 6.51306 16.332C6.51673 16.271 6.52778 16.2063 6.53259 16.1445ZM18.8334 16.1445C18.8382 16.2063 18.8493 16.271 18.8529 16.332C18.9599 18.112 18.569 19.437 17.808 19.877C17.583 20.007 17.3203 20.0703 17.0033 20.0703C16.2217 20.0703 15.1879 19.6546 14.0658 18.8848C14.7259 18.2619 15.3715 17.5525 15.9935 16.7637C17.0019 16.6191 17.9526 16.4083 18.8334 16.1445ZM11.8705 16.9785C12.1403 16.9876 12.4086 17 12.683 17C12.9574 17 13.2257 16.9876 13.4955 16.9785C13.2232 17.264 12.9541 17.5248 12.683 17.7715C12.4119 17.5247 12.1427 17.264 11.8705 16.9785Z" fill="#585858"/>
</svg>
